<svg xmlns="http://www.w3.org/2000/svg" enable-background="new 0 0 66 66" viewBox="0 0 66 66" id="learning"><path d="M36 19.5c-.4-.4-1-.4-1.4 0-.9.9-2.3.9-3.2 0-.4-.4-1-.4-1.4 0-.4.4-.4 1 0 1.4.8.8 1.9 1.2 3 1.2 1.1 0 2.2-.4 3-1.2C36.4 20.5 36.4 19.9 36 19.5zM36.2 16.9H38c.6 0 1-.4 1-1s-.4-1-1-1h-1.8c-.6 0-1 .4-1 1S35.7 16.9 36.2 16.9zM30.8 15.9c0-.6-.4-1-1-1H28c-.6 0-1 .4-1 1s.4 1 1 1h1.8C30.3 16.9 30.8 16.4 30.8 15.9z"></path><path d="M54.8,38.1c-0.9-0.5-1.8-0.9-2.7-1.2v-6.8c0-0.7-0.4-1.3-1-1.7c-0.6-0.4-1.3-0.4-2-0.1l-2,1c-1.1-1.5-2.9-2.5-4.8-2.5h-3.3
		L37.8,25c1.9-1.2,3.5-3.2,4.6-5.6c2.8-0.5,3.6-5.5,1.3-7.2C43.4,5.5,39.2,1,33,1c-6.2,0-10.4,4.5-10.7,11.2
		c-2.3,1.7-1.5,6.7,1.3,7.2c1.1,2.5,2.7,4.4,4.6,5.6l-1.3,1.9h-3.3c-1.9,0-3.7,0.9-4.8,2.5l-2-1c-0.6-0.3-1.4-0.3-2,0.1
		c-0.6,0.4-1,1-1,1.7v6.8c-0.9,0.3-1.8,0.8-2.7,1.2c-1,0.5-1.7,1.5-1.7,2.7v5.9c0,1.1,0.6,2.1,1.7,2.7c0.8,0.4,1.7,0.8,2.6,1.2
		c0,0,0.1,0,0.1,0v3.6c0,0.8,0.4,1.4,1.1,1.8l17.6,9c0,0,0,0,0,0C32.7,65,32.9,65,33,65s0.3,0,0.4-0.1c0,0,0,0,0,0l17.6-9
		c0.7-0.3,1.1-1,1.1-1.8v-3.6c0.9-0.3,1.8-0.8,2.7-1.2c1-0.5,1.7-1.5,1.7-2.7v-5.9C56.5,39.6,55.9,38.6,54.8,38.1z M33,3
		c4,0,6.9,2.2,8.1,5.8L40.5,8c-0.3-0.4-0.9-0.6-1.3-0.3c-4.1,2.6-8.2,2.6-12.3,0c-0.4-0.3-1-0.2-1.3,0.3l-0.6,0.8
		C26.1,5.2,29,3,33,3z M25.3,18c-0.2-0.4-0.5-0.7-0.9-0.7c-0.1,0-0.1,0-0.2,0c0,0-0.1,0-0.1,0v0c-0.3,0-0.9-0.6-1-1.7
		c-0.1-1.1,0.3-1.8,0.6-1.9c0.3-0.1,0.4-0.2,0.6-0.5l2.4-3.4c4.3,2.4,8.6,2.4,12.8,0l2.4,3.4c0.1,0.2,0.3,0.4,0.6,0.5
		c0.3,0.1,0.7,0.8,0.6,1.9c-0.1,1.1-0.7,1.7-1,1.7c0,0,0,0,0,0c-0.5-0.1-1,0.2-1.2,0.6c-1.5,4-4.5,6.4-7.7,6.4S26.8,22,25.3,18z
		 M33,26.5c1,0,2-0.2,3-0.5l1.5,2.2c-0.4,1.3-1.6,3.3-4.5,4.1c-2.9-0.8-4.2-2.8-4.5-4.1l1.5-2.2C31,26.3,32,26.5,33,26.5z
		 M23.6,28.9h3c0.6,1.8,2.3,4.4,6,5.4l0,0c0,0,0.1,0,0.1,0c0.1,0,0.2,0,0.2,0c0,0,0,0,0,0l0,0l0,0c0,0,0,0,0,0c0.1,0,0.2,0,0.2,0
		c3.8-1,5.5-3.5,6.1-5.4h3c1.2,0,2.3,0.5,3,1.4L33,36.6l-12.4-6.3C21.3,29.4,22.4,28.9,23.6,28.9z M12.1,47.5
		c-0.3-0.2-0.6-0.5-0.6-0.9v-5.9c0-0.4,0.2-0.7,0.6-0.9c2.2-1.1,3.6-1.6,5-1.7c0,0,0.1,0,0.1,0c0.7,0,1.2,0.5,1.2,1.2
		s-0.6,1.2-1.2,1.2c0,0-0.1,0-0.1,0c0,0-0.1,0-0.1,0l-2.4,0.5c-0.5,0.1-0.9,0.6-0.8,1.2c0.1,0.5,0.5,0.8,1,0.8c0.1,0,0.1,0,0.2,0
		l2.2-0.5c0.7,0,1.2,0.5,1.2,1.1c0,0.6-0.5,1.1-1.2,1.2L15,44.4c-0.5-0.1-1.1,0.2-1.2,0.8c-0.1,0.5,0.2,1.1,0.8,1.2l2.4,0.5
		c0.1,0,0.1,0,0.2,0c0,0,0,0,0,0c0.4,0,0.7,0.1,0.9,0.4c0.2,0.2,0.3,0.5,0.3,0.8c0,0.6-0.7,1.1-1.4,1.1v1l-0.1-1
		c-0.8,0-1.6-0.2-2.5-0.6C13.8,48.4,13.1,48.1,12.1,47.5z M15.9,51.1c0.4,0.1,0.7,0.1,1.1,0.1c0,0,0.1,0,0.1,0c1.8,0,3.3-1.3,3.4-3
		c0.1-0.9-0.2-1.7-0.8-2.3c0,0,0,0,0,0c0.5-0.6,0.9-1.3,0.9-2.2c0-0.8-0.3-1.6-0.9-2.2c0.5-0.6,0.9-1.3,0.9-2.2
		c0-1.7-1.4-3.1-3.1-3.2c0,0-0.1,0-0.1,0c-0.5,0-0.9,0-1.3,0.1v-6.3L32,38.3v24l-16.1-8.2V51.1z M50.1,54.1L34,62.4v-24l13.2-6.8
		l0,0l0,0l2.9-1.5v6.3c-0.4-0.1-0.9-0.1-1.3-0.1c-0.1,0-0.1,0-0.1,0c-1.7,0.1-3.1,1.5-3.1,3.2c0,0.8,0.3,1.6,0.9,2.2
		c-0.5,0.6-0.9,1.3-0.9,2.2c0,0.8,0.3,1.6,0.9,2.2c0,0,0,0,0,0c-0.6,0.6-0.9,1.5-0.8,2.3c0.1,1.7,1.6,3,3.4,3c0,0,0.1,0,0.1,0
		C51.2,51.1,49.4,51.2,50.1,54.1z M54.5,46.7c0,0.4-0.2,0.7-0.6,0.9c-1.5,0.8-3.2,1.6-4.9,1.7c-0.1,0-0.2,0-0.1,0
		c-0.7,0-1.3-0.5-1.4-1.1c0-0.3,0.1-0.6,0.3-0.8c0.2-0.3,0.6-0.4,0.9-0.4c0,0,0,0,0,0c0.2,0,0.2,0,2.6-0.5c0.5-0.1,0.9-0.6,0.8-1.2
		c-0.3-1.5-2.3-0.4-3.4-0.3c-0.7,0-1.2-0.5-1.2-1.2c0-0.6,0.5-1.1,1.2-1.1c1,0.1,3.1,1.2,3.4-0.3c0.1-0.5-0.2-1.1-0.8-1.2L49,40.6
		c0,0-0.1,0-0.1,0c0,0-0.1,0-0.1,0c-0.7,0-1.2-0.5-1.2-1.2s0.6-1.2,1.2-1.2c0,0,0.1,0,0.1,0c1.7,0,3.5,0.9,5,1.7
		c0.3,0.2,0.6,0.5,0.6,0.9V46.7z"></path></svg>